<svg viewBox="0 0 100 112" xmlns="http://www.w3.org/2000/svg"><defs><clipPath id="a"><circle cx="49.996" cy="55.979" r="40" fill="none"></circle></clipPath></defs><circle cx="49.996" cy="55.979" r="40" data-name="New Symbol 1" fill="#fff0ed" class="fill-fff0ed"></circle><g clip-path="url(#a)"><path d="M49.584 38.262a.773.773 0 0 0 .875 0C59.3 32.2 61 29.089 61 24.939a6.3 6.3 0 0 0-2.627-4.9C54.3 17 51.252 21.333 50.021 22.73c-.862-.979-4.131-5.843-8.346-2.692a6.3 6.3 0 0 0-2.63 4.9c-.004 4.151 1.694 7.262 10.539 13.324Z" fill="#e04122" class="fill-e04122"></path><path d="M41.675 23.368c2.984-2.231 5.5-.444 7.013 1.138a1.848 1.848 0 0 0 2.673.023c1.57-1.641 4.012-3.4 7.007-1.161a6.565 6.565 0 0 1 2.453 3.588A11.048 11.048 0 0 0 61 24.939a6.3 6.3 0 0 0-2.628-4.9c-4.072-3.039-7.12 1.294-8.35 2.691-.863-.979-4.132-5.843-8.347-2.692a6.3 6.3 0 0 0-2.63 4.9 11.156 11.156 0 0 0 .174 2.018 6.579 6.579 0 0 1 2.456-3.588Z" fill="#db4828" class="fill-ff6242"></path><path d="M49.584 38.262a.773.773 0 0 0 .875 0C59.3 32.2 61 29.089 61 24.939h0a6.3 6.3 0 0 0-2.627-4.9h0C54.3 17 51.252 21.333 50.021 22.73c-.862-.979-4.131-5.843-8.346-2.692h0a6.3 6.3 0 0 0-2.63 4.9h0c-.004 4.151 1.694 7.262 10.539 13.324Z" stroke="#1a1a19" stroke-linecap="round" stroke-linejoin="round" fill="none" class="stroke-45413c"></path><path d="M22.375 97.979h19v12h-19z" fill="#a38d68" stroke="#1a1a19" stroke-linecap="round" stroke-linejoin="round" class="fill-947746 stroke-45413c"></path><path d="M31.875 64.979h0a14.5 14.5 0 0 1 14.5 14.5v23.5a2.5 2.5 0 0 1-2.5 2.5h0a2.5 2.5 0 0 1-2.5-2.5v-6h-19v6a2.5 2.5 0 0 1-2.5 2.5h0a2.5 2.5 0 0 1-2.5-2.5v-23.5a14.5 14.5 0 0 1 14.5-14.5Z" fill="#807d77" stroke="#1a1a19" stroke-linecap="round" stroke-linejoin="round" class="fill-ffda8f stroke-45413c"></path><path d="m38.959 66.823-7.084 21.156-7.083-21.156a14.5 14.5 0 0 0-7.417 12.656v21h5v3.5c4.56-.911 7.828-2.522 9.5-5 1.671 2.478 4.939 4.089 9.5 5v-3.5h5v-21a14.5 14.5 0 0 0-7.416-12.656Z" fill="#141414" class="fill-b89558"></path><path d="m26.337 71.438-1.545-4.615a14.5 14.5 0 0 0-7.417 12.656v4q0-.51.035-1.011a12.6 12.6 0 0 1 8.927-11.03ZM38.959 66.823l-1.546 4.615a12.607 12.607 0 0 1 8.928 11.03q.034.5.034 1.011v-4a14.5 14.5 0 0 0-7.416-12.656Z" fill="#000000" class="fill-debb7e"></path><path d="m38.959 66.823-7.084 21.156-7.083-21.156a14.5 14.5 0 0 0-7.417 12.656v21h5v3.5c4.56-.911 7.828-2.522 9.5-5h0c1.671 2.478 4.939 4.089 9.5 5v-3.5h5v-21a14.5 14.5 0 0 0-7.416-12.656Z" stroke="#1a1a19" stroke-linecap="round" stroke-linejoin="round" fill="none" class="stroke-45413c"></path><path d="M31.875 64.979a14.445 14.445 0 0 0-7.083 1.844l7.083 21.156 7.084-21.156a14.446 14.446 0 0 0-7.084-1.844Z" fill="#ffffff" stroke="#1a1a19" stroke-linecap="round" stroke-linejoin="round" class="fill-ffffff stroke-45413c"></path><path d="M35.375 61.979h-7v3.5l3.5 3.5 3.5-3.5v-3.5z" fill="#807d77" class="fill-ffda8f"></path><path d="M28.375 64.029a4.95 4.95 0 0 0 7 0v-2.05h-7Z" fill="#858076" class="fill-ffbe3d"></path><path d="M35.375 61.979h-7v3.5l3.5 3.5 3.5-3.5v-3.5z" stroke="#1a1a19" stroke-linecap="round" stroke-linejoin="round" fill="none" class="stroke-45413c"></path><path d="M41.886 51v-2.5a10 10 0 0 0-20 0V51a2 2 0 0 0 0 4c.042 0 .081-.01.123-.012a9.986 9.986 0 0 0 19.754 0c.042 0 .081.012.123.012a2 2 0 0 0 0-4Z" fill="#807d77" stroke="#1a1a19" stroke-linecap="round" stroke-linejoin="round" class="fill-ffda8f stroke-45413c"></path><circle cx="26.136" cy="54.757" r="1.25" fill="#858076" class="fill-ffbe3d"></circle><circle cx="37.636" cy="54.749" r="1.25" fill="#858076" class="fill-ffbe3d"></circle><path d="M28.878 57.3a4.362 4.362 0 0 0 6.016 0M29.386 51.507a1.629 1.629 0 0 0-3.008 0M37.394 51.5a1.629 1.629 0 0 0-3.008 0" stroke="#1a1a19" stroke-linecap="round" stroke-linejoin="round" fill="none" class="stroke-45413c"></path><path d="M22.386 51.5v-2c0-3.211 1.713-5 4.883-5.507 2.511.733 6.17.886 9-1a9.043 9.043 0 0 1 3.283 2.325c1.4 1.52 1.834 4.026 1.834 6.182a3.171 3.171 0 0 1 2 .5v-6a6.793 6.793 0 0 0-7.12-6.507c-1.152-2.3-3.5-2-4.5-2A11.406 11.406 0 0 0 20.386 49v3a3.167 3.167 0 0 1 2-.5Z" fill="#080808" class="fill-614b44"></path><path d="M36.266 39.492c-1.152-2.3-3.5-2-4.5-2A11.406 11.406 0 0 0 20.386 49v2a11.406 11.406 0 0 1 11.383-11.508c1 0 3.345-.3 4.5 2A6.793 6.793 0 0 1 43.386 48v-2a6.793 6.793 0 0 0-7.12-6.508Z" fill="#1c1918" class="fill-947063"></path><path d="M22.386 51.5v-2c0-3.211 1.713-5 4.883-5.507 2.511.733 6.17.886 9-1a9.043 9.043 0 0 1 3.283 2.325c1.4 1.52 1.834 4.026 1.834 6.182a3.171 3.171 0 0 1 2 .5v-6a6.793 6.793 0 0 0-7.12-6.507c-1.152-2.3-3.5-2-4.5-2A11.406 11.406 0 0 0 20.386 49v3a3.167 3.167 0 0 1 2-.5ZM31.875 98.978V87.979" stroke="#1a1a19" stroke-linecap="round" stroke-linejoin="round" fill="none" class="stroke-45413c"></path><path d="m34.875 80.979-3 6-3-6 2-8.5h2l2 8.5z" fill="#121212" stroke="#1a1a19" stroke-linecap="round" stroke-linejoin="round" class="fill-87898c stroke-45413c"></path><path d="m21.449 69.4 6.286 18.8a1 1 0 0 0 1.233.641l2.907-.864-7.083-21.154a14.571 14.571 0 0 0-3.343 2.577ZM36.016 88.2 42.3 69.4a14.592 14.592 0 0 0-3.343-2.579l-7.082 21.158 2.908.864a1 1 0 0 0 1.233-.643Z" fill="#000000" stroke="#1a1a19" stroke-linecap="round" stroke-linejoin="round" class="fill-debb7e stroke-45413c"></path><path d="M34.125 93.979a.75.75 0 1 0 .75.75.75.75 0 0 0-.75-.75ZM34.125 91.479a.75.75 0 1 0 .75.75.75.75 0 0 0-.75-.75ZM29.625 93.979a.75.75 0 1 0 .75.75.75.75 0 0 0-.75-.75ZM29.625 91.479a.75.75 0 1 0 .75.75.75.75 0 0 0-.75-.75Z" fill="#1a1a19" class="fill-45413c"></path><path d="M41.375 100.479v-20M22.375 100.479v-20" stroke="#1a1a19" stroke-linecap="round" stroke-linejoin="round" fill="none" class="stroke-45413c"></path><path d="M32.875 72.479h-2a3.418 3.418 0 0 1-1-2.415v-1.085h4v1.085a3.413 3.413 0 0 1-1 2.415Z" fill="#121212" stroke="#1a1a19" stroke-linecap="round" stroke-linejoin="round" class="fill-87898c stroke-45413c"></path><path d="m29.875 70.979 2-2-3.559-3.56a14.394 14.394 0 0 0-3.139 1.2ZM35.435 65.419l-3.56 3.56 2 2 4.7-4.364a14.394 14.394 0 0 0-3.14-1.196Z" fill="#ffffff" stroke="#1a1a19" stroke-linecap="round" stroke-linejoin="round" class="fill-ffffff stroke-45413c"></path><path d="M58.666 99.556h19v16h-19z" fill="#000000" class="fill-656769"></path><path d="M58.666 99.556h19v3h-19z" fill="#140909" class="fill-525252"></path><path d="M58.666 99.556h19v16h-19z" stroke="#1a1a19" stroke-linecap="round" stroke-linejoin="round" fill="none" class="stroke-45413c"></path><path d="M83.666 99.556v-19a15.5 15.5 0 1 0-31 0v19Z" fill="#000000" class="fill-f0f0f0"></path><path d="M68.166 69.556a15.5 15.5 0 0 1 15.5 15.5v-4.5a15.5 15.5 0 1 0-31 0v4.5a15.5 15.5 0 0 1 15.5-15.5Z" fill="#ffffff" class="fill-ffffff"></path><path d="M83.666 99.556v-19a15.5 15.5 0 1 0-31 0v19Z" stroke="#1a1a19" stroke-linecap="round" stroke-linejoin="round" fill="none" class="stroke-45413c"></path><path d="M63.255 65.85a10.76 10.76 0 0 0 .13 6.735 1 1 0 0 0 1.428.461l3.353-1.99 3.352 1.99a1 1 0 0 0 1.428-.461 10.746 10.746 0 0 0 .13-6.735 15.582 15.582 0 0 0-9.821 0Z" fill="#ffffff" stroke="#1a1a19" stroke-linecap="round" stroke-linejoin="round" class="fill-ffffff stroke-45413c"></path><path d="m68.166 71.056-3.207-3.207a1 1 0 0 1-.293-.707v-5.586h7v5.586a1 1 0 0 1-.293.707Z" fill="#807d77" class="fill-ffda8f"></path><path d="M64.666 65.542a12.173 12.173 0 0 0 7 0v-3.986h-7Z" fill="#858076" class="fill-ffbe3d"></path><path d="m68.166 71.056-3.207-3.207a1 1 0 0 1-.293-.707v-5.586h7v5.586a1 1 0 0 1-.293.707ZM58.666 79.056v20.5M77.666 79.056v20.5" stroke="#1a1a19" stroke-linecap="round" stroke-linejoin="round" fill="none" class="stroke-45413c"></path><path d="M58.666 96.556h19v3h-19z" fill="#915e3a" stroke="#1a1a19" stroke-linecap="round" stroke-linejoin="round" class="fill-915e3a stroke-45413c"></path><rect height="4" rx="1" ry="1" width="5" x="65.666" y="96.056" fill="#14130f" stroke="#1a1a19" stroke-linecap="round" stroke-linejoin="round" class="fill-ebcb00 stroke-45413c"></rect><path d="M68.166 103.056v12.5M71.666 80.556h4M60.666 80.556h4M68.166 71.056v25" stroke="#1a1a19" stroke-linecap="round" stroke-linejoin="round" fill="none" class="stroke-45413c"></path><path d="M78.681 54.935a2 2 0 0 1-.5.064c-.042 0-.081-.01-.122-.012a10 10 0 0 1-3.3 6.038 3.328 3.328 0 0 0 2.112.517.3.3 0 0 0 .26-.347 60.875 60.875 0 0 1-.248-1.585.3.3 0 0 1 .406-.313 3.314 3.314 0 0 0 1.586.244.3.3 0 0 0 .263-.345c-.125-.808-.438-3.035-.457-4.261ZM58.3 54.987c-.042 0-.081.012-.123.012a1.967 1.967 0 0 1-.494-.062c-.021 1.226-.333 3.453-.451 4.26a.3.3 0 0 0 .262.344 3.3 3.3 0 0 0 1.586-.241.294.294 0 0 1 .406.313 57.461 57.461 0 0 1-.247 1.582.3.3 0 0 0 .262.35 3.324 3.324 0 0 0 2.1-.513 10 10 0 0 1-3.301-6.045Z" fill="#080808" stroke="#1a1a19" stroke-linecap="round" stroke-linejoin="round" class="fill-614b44 stroke-45413c"></path><path d="M58.176 51v-2.5a10 10 0 0 1 20 0V51a2 2 0 0 1 0 4c-.042 0-.081-.01-.122-.012a9.987 9.987 0 0 1-19.755 0c-.042 0-.081.012-.123.012a2 2 0 0 1 0-4Z" fill="#807d77" class="fill-ffda8f"></path><path d="M58.176 51v-2.5a10 10 0 0 1 20 0V51a2 2 0 0 1 0 4c-.042 0-.081-.01-.122-.012a9.987 9.987 0 0 1-19.755 0c-.042 0-.081.012-.123.012a2 2 0 0 1 0-4Z" stroke="#1a1a19" stroke-linecap="round" stroke-linejoin="round" fill="none" class="stroke-45413c"></path><circle cx="73.926" cy="55.249" r="1.25" fill="#858076" class="fill-ffbe3d"></circle><circle cx="62.426" cy="55.249" r="1.25" fill="#858076" class="fill-ffbe3d"></circle><path d="M71.185 57.788a4.361 4.361 0 0 1-6.017 0M62.676 52a1.63 1.63 0 0 1 3.009 0M70.685 52a1.629 1.629 0 0 1 3.008 0" stroke="#1a1a19" stroke-linecap="round" stroke-linejoin="round" fill="none" class="stroke-45413c"></path><path d="M78.176 51a1 1 0 0 1-1-1v-.608a.99.99 0 0 0-.806-.98A5.326 5.326 0 0 1 72.676 46v1.5a1 1 0 0 1-1 1h-.5c-2.848 0-4.429-2.789-5.1-4.4a.491.491 0 0 0-.844-.1 12.128 12.128 0 0 1-5.38 4.306 1 1 0 0 0-.673.944V50a1 1 0 0 1-1 1 1 1 0 0 1-1-1v-2a11 11 0 0 1 11-11 11 11 0 0 1 11 11v2a.994.994 0 0 1-1.003 1Z" fill="#080808" class="fill-614b44"></path><path d="M68.176 37a11 11 0 0 0-11 11v2a1.029 1.029 0 0 0 .027.231 11 11 0 0 1 21.946.006.972.972 0 0 0 .027-.23V48a11 11 0 0 0-11-11Z" fill="#1c1918" class="fill-947063"></path><path d="M78.176 51h0a1 1 0 0 1-1-1v-.608a.99.99 0 0 0-.806-.98A5.326 5.326 0 0 1 72.676 46h0v1.5a1 1 0 0 1-1 1h-.5c-2.848 0-4.429-2.789-5.1-4.4a.491.491 0 0 0-.844-.1 12.128 12.128 0 0 1-5.38 4.306 1 1 0 0 0-.673.944V50a1 1 0 0 1-1 1h0a1 1 0 0 1-1-1v-2a11 11 0 0 1 11-11h0a11 11 0 0 1 11 11v2a.994.994 0 0 1-1.003 1Z" stroke="#1a1a19" stroke-linecap="round" stroke-linejoin="round" fill="none" class="stroke-45413c"></path></g></svg>